<?xml version="1.0" encoding="utf-8"?>
<!-- Generator: Adobe Illustrator 19.0.0, SVG Export Plug-In . SVG Version: 6.00 Build 0)  -->
<svg version="1.1" id="Layer_1" xmlns="http://www.w3.org/2000/svg" xmlns:xlink="http://www.w3.org/1999/xlink" x="0px" y="0px"
	 viewBox="0 0 96 96" style="enable-background:new 0 0 96 96;" xml:space="preserve">
<style type="text/css">
	.st0{fill:#333333;}
</style>
<g id="XMLID_1_">
	<path id="XMLID_6_" class="st0" d="M48,15.5c-13.4,0-24.4,10.2-24.4,22.3C23.6,56.2,48,80.5,48,80.5s24.4-24.3,24.4-42.7
		C72.4,25.7,61.4,15.5,48,15.5z M48,74.6c-7.6-8.2-20.3-24.8-20.3-36.8c0-10.1,9.1-18.3,20.3-18.3c5.4,0,10.6,1.9,14.5,5.5
		c3.7,3.5,5.9,8,5.9,12.8C68.3,49.8,55.6,66.4,48,74.6z M56.1,37.8c0,4.5-3.6,8.1-8.1,8.1s-8.1-3.6-8.1-8.1s3.6-8.1,8.1-8.1
		S56.1,33.3,56.1,37.8z"/>
</g>
</svg>
